{"glyphs":{"0":{"ha":810,"x_min":0,"x_max":749,"o":"m 283 972 l 405 972 q 749 567 696 972 l 749 466 q 608 142 749 218 q 385 0 608 47 q 0 506 45 0 q 243 931 0 780 q 283 972 250 972 m 243 668 l 243 364 q 405 142 243 142 q 526 446 506 142 l 526 547 q 364 850 526 850 q 243 668 243 800 z "},"1":{"ha":398,"x_min":-27,"x_max":340,"o":"m -27 948 l 269 980 l 269 513 q 253 449 253 456 l 253 417 q 269 353 253 382 q 260 265 269 336 q 269 89 269 145 q 340 1 340 49 l 325 -7 l -27 -7 l -27 1 l 77 105 l 77 377 q 68 385 77 385 l 77 401 l 77 796 q -19 932 77 860 l -27 948 z "},"2":{"ha":665,"x_min":-9,"x_max":590,"o":"m 448 916 q 511 890 488 916 q 569 833 528 857 q 590 730 589 789 q 321 416 580 493 q 203 251 189 356 l 201 130 l 307 127 q 323 127 315 127 q 580 368 429 140 l 580 18 q 494 54 543 18 q 253 5 395 -16 l -7 3 l -3 267 q 35 394 -3 338 l 83 353 l 56 420 q 275 541 125 496 q 360 740 381 582 q 218 836 361 849 l 215 836 l 215 838 q -9 604 119 797 l -9 954 q 77 917 28 954 q 215 972 169 953 q 238 977 227 975 q 446 946 364 979 l 448 916 z "},"3":{"ha":700,"x_min":1,"x_max":663,"o":"m 248 553 l 309 553 q 414 682 397 553 l 414 746 q 256 859 414 852 q 2 597 119 825 l 2 947 q 88 910 39 947 q 248 963 153 956 l 248 966 l 252 964 l 301 964 q 615 762 557 964 l 615 714 q 462 505 615 559 l 462 496 q 583 432 536 482 q 575 408 575 416 l 599 391 q 615 408 602 408 q 663 246 663 322 q 543 61 631 61 q 494 29 518 61 q 238 -4 374 3 q 100 51 192 15 q 1 14 37 14 l 1 364 q 264 121 142 171 q 454 254 454 111 l 454 287 q 248 448 454 444 q 168 403 195 433 l 178 597 q 248 553 190 555 z "},"4":{"ha":732,"x_min":-36,"x_max":734,"o":"m -36 972 l 12 972 q 20 964 20 972 l 37 972 l 326 972 l 237 867 l 237 844 q 221 667 237 734 q 237 555 237 642 l 253 563 l 414 563 l 429 555 l 429 867 l 341 972 l 734 972 q 630 867 734 964 l 630 779 q 606 723 630 741 q 630 627 630 655 l 630 354 q 606 338 630 338 q 654 73 630 73 l 710 25 q 686 -7 699 -7 l 446 -7 q 366 17 417 -7 l 366 33 q 429 98 381 33 l 429 435 l 237 435 l 60 418 q 45 515 45 482 l 52 571 q 37 587 37 571 l 37 844 q -36 940 37 873 l -36 972 z "},"5":{"ha":656,"x_min":-9,"x_max":590,"o":"m 446 32 q 238 1 364 -1 q 215 6 227 3 q 77 61 169 25 q -9 24 28 24 l -9 374 q 215 140 119 181 l 215 142 l 218 142 q 360 238 361 129 q 275 437 381 396 q 56 558 125 482 l 83 625 l 35 584 q -3 711 -3 640 l -7 975 l 253 972 q 494 924 395 994 q 580 960 543 960 l 580 610 q 323 850 429 838 q 307 851 315 851 l 201 848 l 203 727 q 321 562 189 622 q 590 248 580 485 q 569 144 589 189 q 511 87 528 121 q 448 62 488 62 l 446 32 z "},"6":{"ha":722,"x_min":0,"x_max":678,"o":"m 220 446 q 218 350 218 401 q 338 132 264 173 q 479 288 479 151 q 321 446 479 446 l 222 446 l 220 446 m 229 572 q 321 573 255 573 q 678 304 678 573 q 623 163 678 249 q 294 1 545 19 q 0 497 43 15 q 309 957 67 957 l 384 975 q 557 920 418 975 q 644 957 607 957 l 644 607 q 372 851 483 851 q 229 572 257 851 z "},"7":{"ha":681,"x_min":-22,"x_max":641,"o":"m 317 -4 q 81 -13 229 -13 l -22 -13 l -22 7 q 73 151 52 106 l 165 383 q 235 446 195 422 q 199 467 229 461 l 331 808 l 331 827 l 186 827 q 0 579 13 579 l 0 972 q 305 952 151 972 q 473 971 406 968 l 473 909 l 498 972 l 641 972 l 641 951 q 545 808 566 852 l 262 138 l 317 -4 z "},"8":{"ha":732,"x_min":-11,"x_max":665,"o":"m 304 553 l 304 556 l 338 556 q 416 685 399 556 l 416 749 q 325 859 416 842 l 325 858 q 218 747 218 845 l 218 682 q 296 553 235 553 l 304 553 m 330 967 q 617 766 559 967 l 617 718 q 464 508 617 562 l 464 500 q 585 435 538 486 q 577 411 577 420 l 601 395 q 617 411 604 411 q 665 250 665 326 q 545 64 633 64 q 496 33 520 64 q 337 5 403 12 l 337 -1 q 158 30 231 9 l 110 62 q -11 247 21 62 q 37 408 -11 323 l 69 433 q 170 497 117 483 l 170 505 q 17 715 17 559 q 330 967 37 968 m 301 113 q 456 258 456 123 l 456 290 q 330 448 456 426 q 199 288 199 433 l 199 255 q 301 113 199 132 z "},"9":{"ha":709,"x_min":-34,"x_max":644,"o":"m 425 530 q 426 626 426 575 q 307 844 380 803 q 165 688 165 825 q 323 530 165 530 l 422 530 l 425 530 m 416 404 q 323 403 389 403 q -34 672 -34 403 q 22 813 -34 727 q 351 975 99 957 q 644 479 602 961 q 335 19 577 19 l 260 1 q 87 56 226 1 q 1 19 37 19 l 1 369 q 273 125 161 125 q 416 404 387 125 z "},"\u0000":{"ha":0,"x_min":0,"x_max":0,"o":""}," ":{"ha":250,"x_min":0,"x_max":0,"o":""},"!":{"ha":269,"x_min":-87,"x_max":313,"o":"m 90 227 l 111 227 q 212 125 138 227 l 212 106 q 131 -36 131 4 l 111 -36 q -11 125 79 -36 l 90 227 m 17 377 q 9 385 17 385 l 17 401 l 17 817 q -79 952 17 880 l -87 968 l 313 968 l 209 865 l 209 513 q 193 449 193 456 l 193 417 q 141 298 193 382 q 140 279 141 292 l 85 288 l 17 377 z "},"\"":{"ha":467,"x_min":-5,"x_max":407,"o":"m 203 831 q 137 599 137 635 l 117 599 q -5 896 85 599 l 96 998 l 117 998 q 205 914 141 998 l 285 995 l 305 995 q 407 893 332 995 l 407 873 q 326 596 326 636 l 305 596 q 203 831 277 596 z "},"#":{"ha":703,"x_min":-27,"x_max":686,"o":"m 71 391 l 77 401 l 77 543 q 1 497 39 523 l -11 736 q 77 722 34 728 l 77 749 q -19 884 77 812 l -27 901 l 304 901 l 269 797 l 269 699 q 323 696 296 696 q 398 696 359 694 l 398 696 q 390 805 390 749 q 386 892 386 845 l 402 901 l 686 901 l 686 892 l 582 789 l 582 723 q 659 743 620 732 l 637 532 q 582 549 609 541 l 582 389 q 665 410 623 397 l 643 199 q 582 218 612 209 l 582 186 q 678 50 582 122 l 686 34 l 354 34 l 390 138 l 390 262 q 300 270 342 269 q 268 269 284 270 q 260 197 266 245 q 269 130 269 186 q 273 42 273 90 l 257 34 l -27 34 l -27 42 l 77 146 l 77 207 q 7 164 43 188 l -5 404 q 71 391 34 396 m 269 602 l 269 445 q 253 381 253 388 l 253 368 q 329 363 292 364 q 390 362 358 361 l 390 449 q 406 513 406 506 l 406 545 q 397 593 406 570 q 294 603 341 602 q 269 602 281 603 z "},"$":{"ha":656,"x_min":-9,"x_max":590,"o":"m 250 581 q 307 541 271 554 q 338 530 323 536 l 338 837 q 250 813 279 838 l 250 581 m 190 441 q -9 730 0 528 q 12 833 -7 789 q 71 890 54 857 q 134 916 93 916 l 136 946 q 190 963 161 956 l 190 973 q 174 1091 203 1057 l 172 1112 l 261 1112 l 250 1036 l 250 973 q 338 977 290 977 q 329 1092 337 1058 l 326 1113 l 409 1113 l 397 1037 l 397 959 q 504 917 439 942 q 590 954 553 954 l 590 604 q 397 821 483 766 l 397 513 q 397 507 397 511 q 526 420 479 471 l 498 353 l 546 394 q 584 267 584 338 q 397 10 588 41 q 397 -105 397 -66 q 399 -159 399 -138 l 394 -170 l 326 -170 l 326 -159 l 338 -84 l 338 5 l 328 5 q 249 1 287 -1 q 250 -106 250 -70 q 258 -160 258 -138 l 253 -171 l 172 -171 l 172 -160 l 190 -85 l 190 8 q 87 54 134 21 q 1 18 38 18 l 1 368 q 190 155 106 209 l 190 334 q 188 345 190 345 l 190 366 l 190 441 m 338 366 q 260 416 309 393 q 244 420 252 418 l 244 387 q 250 302 244 341 q 247 186 250 280 q 248 130 248 157 q 258 127 253 128 q 275 127 267 127 q 338 142 313 128 l 338 334 q 336 345 338 345 l 338 366 m 191 783 q 191 601 140 689 l 191 783 m 408 342 l 408 160 q 408 342 458 248 z "},"%":{"ha":776,"x_min":-50,"x_max":748,"o":"m 324 264 l 299 187 q 273 72 273 104 q 345 4 329 4 l 345 -11 l 296 -11 q 264 -18 279 -11 q 232 -11 250 -11 l 119 -11 q 55 4 84 -11 q -34 -18 55 -11 q -50 -4 -50 -18 q 39 72 -50 3 q 79 143 63 72 q 361 728 166 405 l 386 774 q 403 816 379 816 q 387 830 403 830 q 406 890 406 858 q 334 958 349 958 l 334 972 l 382 972 q 414 980 399 972 l 446 972 l 579 972 q 644 958 614 972 q 732 980 644 972 q 748 965 748 980 q 659 890 748 958 q 619 819 635 890 q 570 771 570 801 q 324 264 463 509 m 94 963 l 114 963 q 216 861 141 963 l 216 842 q 134 700 134 740 l 114 700 q -7 861 82 700 l 94 963 m 581 262 l 602 262 q 703 160 629 262 l 703 140 q 622 -1 622 39 l 602 -1 q 480 160 570 -1 l 581 262 z "},"&":{"ha":700,"x_min":1,"x_max":663,"o":"m 483 555 q 622 597 612 564 l 631 403 q 503 439 611 425 q 523 203 519 320 q 663 364 591 264 l 663 14 q 564 51 627 14 q 426 -4 472 15 q 170 29 290 3 q 121 61 146 61 q 1 246 33 61 q 49 408 1 322 q 65 391 62 408 l 89 408 q 81 432 89 416 q 202 496 128 482 l 202 505 q 49 714 49 559 l 49 762 q 363 964 106 964 l 412 964 l 416 966 l 416 963 q 576 910 511 956 q 662 947 625 947 l 662 665 q 408 859 545 825 q 250 746 250 852 l 250 682 q 355 553 267 553 l 416 553 q 459 554 439 553 q 461 654 461 602 q 483 555 473 604 m 451 445 q 416 448 435 447 q 210 287 210 444 l 210 254 q 348 121 210 132 q 451 445 428 222 z "},"'":{"ha":269,"x_min":-5,"x_max":218,"o":"m 96 998 l 117 998 q 218 896 144 998 l 218 876 q 137 599 137 639 l 117 599 q -5 896 85 599 l 96 998 z "},"(":{"ha":414,"x_min":-20,"x_max":372,"o":"m 357 918 q 344 918 351 918 q 222 736 222 867 l 222 296 q 369 75 222 85 l 372 -66 q 364 -68 368 -67 q -20 506 25 -68 q 222 999 -20 848 q 263 1040 229 1040 q 355 1044 312 1046 l 357 918 z "},")":{"ha":414,"x_min":-20,"x_max":372,"o":"m -6 59 q 7 59 1 59 q 129 241 129 110 l 129 681 q -18 903 129 892 l -20 1043 q -13 1045 -17 1044 q 372 471 326 1045 q 129 -22 372 130 q 88 -62 122 -62 q -4 -68 39 -69 l -6 59 z "},"*":{"ha":546,"x_min":-19,"x_max":507,"o":"m 244 647 l 237 633 l 209 610 l 190 605 q 149 499 197 583 l 136 488 l 130 494 q 3 665 93 541 q -19 677 -14 671 l 121 704 l 157 734 l 143 741 l 121 768 l 115 787 q 9 828 93 780 l -1 842 l 5 847 q 129 961 51 885 l 243 820 l 250 833 l 278 857 l 297 861 q 338 967 290 884 l 351 979 l 357 972 q 484 802 395 926 q 507 789 500 795 l 366 762 l 330 734 l 344 727 l 367 699 l 372 680 q 477 640 394 688 l 489 626 l 482 621 q 349 524 436 583 q 336 501 342 507 l 273 612 l 244 647 z "},"+":{"ha":546,"x_min":-1,"x_max":476,"o":"m 183 423 l 169 416 l 133 416 l 115 425 q 16 368 106 402 l -1 368 l -1 376 q 7 589 -1 436 q -1 613 -1 604 l 124 545 l 171 545 l 164 559 l 164 595 l 172 613 q 116 711 150 621 l 116 729 l 124 729 q 292 739 184 729 l 292 557 l 306 564 l 342 564 l 360 555 q 458 612 368 578 l 476 612 l 476 604 q 467 391 476 544 q 476 367 476 376 l 351 435 l 305 435 l 311 422 l 311 386 l 303 368 q 359 269 326 359 l 359 252 l 351 252 q 186 260 292 252 q 162 252 171 252 l 183 377 l 183 423 z "},",":{"ha":269,"x_min":-5,"x_max":218,"o":"m 96 180 l 117 180 q 218 78 144 180 l 218 58 q 137 -219 137 -179 l 117 -219 q -5 78 85 -219 l 96 180 z "},"-":{"ha":546,"x_min":-1,"x_max":476,"o":"m 288 555 l 306 564 l 342 564 l 360 555 q 458 612 368 578 l 476 612 l 476 604 q 467 323 476 544 q 476 299 476 308 l 351 435 l 288 435 l 186 425 l 169 416 l 133 416 l 115 425 q 16 368 106 402 l -1 368 l -1 376 q 7 656 -1 436 q -1 681 -1 672 l 124 545 l 186 545 l 288 555 z "},".":{"ha":269,"x_min":-11,"x_max":212,"o":"m 90 227 l 111 227 q 212 125 138 227 l 212 106 q 131 -36 131 4 l 111 -36 q -11 125 79 -36 l 90 227 z "},"/":{"ha":776,"x_min":-50,"x_max":748,"o":"m 324 264 l 299 187 q 273 72 273 104 q 345 4 329 4 l 345 -11 l 296 -11 q 264 -18 279 -11 q 232 -11 250 -11 l 119 -11 q 55 4 84 -11 q -34 -18 55 -11 q -50 -4 -50 -18 q 39 72 -50 3 q 79 143 63 72 q 361 728 166 405 l 386 774 q 403 816 379 816 q 387 830 403 830 q 406 890 406 858 q 334 958 349 958 l 334 972 l 382 972 q 414 980 399 972 l 446 972 l 579 972 q 644 958 614 972 q 732 980 644 972 q 748 965 748 980 q 659 890 748 958 q 619 819 635 890 q 570 771 570 801 q 324 264 463 509 z "},":":{"ha":269,"x_min":-11,"x_max":212,"o":"m 90 227 l 111 227 q 212 125 138 227 l 212 106 q 131 -36 131 4 l 111 -36 q -11 125 79 -36 l 90 227 m 90 694 l 111 694 q 212 593 138 694 l 212 573 q 131 431 131 471 l 111 431 q -11 593 79 431 l 90 694 z "},";":{"ha":281,"x_min":-5,"x_max":224,"o":"m 102 180 l 123 180 q 224 78 150 180 l 224 58 q 143 -219 143 -179 l 123 -219 q 1 78 91 -219 l 102 180 m 96 694 l 117 694 q 218 593 144 694 l 218 573 q 137 431 137 471 l 117 431 q -5 593 85 431 l 96 694 z "},"<":{"ha":414,"x_min":-20,"x_max":372,"o":"m 357 918 q 344 918 351 918 q 222 736 222 867 l 222 296 q 369 75 222 85 l 372 -66 q 364 -68 368 -67 q -20 506 25 -68 q 222 999 -20 848 q 263 1040 229 1040 q 355 1044 312 1046 l 357 918 z "},"=":{"ha":546,"x_min":-4,"x_max":476,"o":"m 288 669 l 306 677 l 342 677 l 360 669 q 458 725 368 691 l 476 725 l 476 717 q 467 437 476 657 q 476 412 476 421 l 351 549 l 288 549 l 186 538 l 169 530 l 133 530 l 115 538 q 16 481 106 515 l -1 481 l -1 490 q 7 770 -1 549 q -1 794 -1 785 l 124 658 l 186 658 l 288 669 m 286 348 l 303 356 l 339 356 l 357 348 q 456 404 366 370 l 473 404 l 473 396 q 465 116 473 336 q 473 92 473 100 l 348 228 l 286 228 l 184 217 l 166 209 l 130 209 l 112 217 q 14 161 104 195 l -4 161 l -4 169 q 5 449 -4 229 q -4 473 -4 465 l 121 337 l 184 337 l 286 348 z "},">":{"ha":414,"x_min":-20,"x_max":372,"o":"m -6 59 q 7 59 1 59 q 129 241 129 110 l 129 681 q -18 903 129 892 l -20 1043 q -13 1045 -17 1044 q 372 471 326 1045 q 129 -22 372 130 q 88 -62 122 -62 q -4 -68 39 -69 l -6 59 z "},"?":{"ha":650,"x_min":-2,"x_max":597,"o":"m 45 280 q 83 394 48 343 l 130 353 l 103 420 q 281 541 172 496 q 367 740 388 582 q 224 836 368 849 l 222 836 l 222 838 q -2 604 125 797 l -2 954 q 84 917 35 954 q 222 972 176 953 q 245 977 233 975 q 452 946 371 979 l 454 916 q 517 890 495 916 q 576 833 534 857 q 597 730 595 789 q 328 416 587 493 q 250 275 252 363 l 45 280 m 122 190 l 142 190 q 244 88 170 190 l 244 68 q 163 -73 163 -33 l 142 -73 q 21 88 111 -73 l 122 190 z "},"@":{"ha":810,"x_min":3,"x_max":752,"o":"m 286 814 l 408 814 q 752 529 699 814 l 752 457 q 610 229 752 282 q 387 129 610 161 q 3 486 48 129 q 245 786 3 680 q 286 814 252 814 m 245 587 l 245 402 q 408 267 245 267 q 529 452 509 267 l 529 513 q 367 699 529 699 q 245 587 245 667 m 364 608 l 385 608 q 486 506 412 608 l 486 486 q 405 345 405 385 l 385 345 q 263 506 353 345 l 364 608 z "},"A":{"ha":776,"x_min":-28,"x_max":766,"o":"m 273 968 l 456 968 q 568 499 528 647 l 560 484 l 560 467 q 568 460 560 460 l 560 444 l 560 412 q 616 309 560 380 q 679 86 655 86 q 766 6 766 14 q 751 -9 766 -9 q 663 14 663 -1 q 600 -1 634 -1 l 488 -1 q 456 -9 471 -1 q 425 -1 443 -1 l 377 -1 l 377 14 q 448 86 393 14 q 433 165 448 119 q 448 181 448 165 q 409 292 425 181 l 242 292 q 194 78 194 105 q 258 14 204 78 l 258 -1 l 178 -1 q 115 -9 145 -1 q 51 -1 84 -1 l -28 -1 l -28 14 q 106 237 79 87 l 266 865 l 266 873 q 202 945 202 925 q 273 968 254 968 m 330 642 q 281 420 281 458 q 313 388 313 420 l 377 428 l 337 642 l 330 642 z "},"B":{"ha":750,"x_min":-22,"x_max":720,"o":"m -22 975 l -14 975 q 285 959 114 975 l 292 975 l 309 967 l 357 967 q 671 766 614 967 l 671 718 q 518 508 671 562 l 518 500 q 640 435 592 486 q 631 411 631 420 l 655 395 q 671 411 658 411 q 720 250 720 326 q 599 64 688 64 q 551 33 574 64 q 252 0 401 0 l 18 0 q 3 16 3 0 q 83 97 3 27 l 83 419 q 107 508 83 453 l 91 661 q 107 709 107 694 q 83 774 83 749 l 83 878 l -22 967 l -22 975 m 292 863 l 292 556 l 365 556 q 470 685 453 556 l 470 749 q 292 863 470 863 m 292 452 l 292 282 q 277 266 292 266 q 285 242 277 258 q 277 153 277 186 q 300 113 288 153 q 510 258 510 113 l 510 290 q 292 452 510 452 z "},"C":{"ha":678,"x_min":-20,"x_max":617,"o":"m 263 972 q 531 923 433 994 q 617 960 581 960 l 617 610 q 360 853 467 838 l 360 850 q 344 850 352 850 q 222 668 222 800 l 222 364 q 385 142 222 142 l 387 142 l 387 140 q 611 374 484 180 l 611 24 q 525 60 574 24 q 387 5 433 24 q 364 0 376 3 q -20 506 25 0 q 222 931 -20 780 q 263 972 229 972 z "},"D":{"ha":747,"x_min":-54,"x_max":690,"o":"m 65 972 l 212 972 q 616 766 509 972 q 680 585 616 730 q 690 490 690 503 q 543 158 659 158 q 460 56 471 56 q 175 0 311 0 q -36 8 79 8 l -54 8 l -54 16 l 47 111 l 47 174 l 56 269 l 75 260 l 83 260 l 83 269 q 47 379 47 355 l 47 418 q 65 734 47 630 q -18 924 47 924 l -18 940 q 65 972 43 972 m 249 846 l 258 829 l 258 134 l 267 134 q 469 418 429 134 l 469 513 q 478 522 469 522 l 469 537 l 469 569 q 304 838 437 838 l 249 846 z "},"E":{"ha":688,"x_min":-43,"x_max":628,"o":"m -34 972 l 118 972 q 163 956 163 970 q 235 964 212 964 q 369 948 292 964 q 440 972 374 972 l 619 972 q 628 956 619 956 l 619 940 l 619 644 l 628 587 l 610 580 q 449 852 471 847 l 288 852 l 288 555 l 306 564 l 342 564 l 360 555 q 458 612 368 578 l 476 612 l 476 604 q 467 323 476 544 q 476 299 476 308 l 351 435 l 288 435 l 288 115 q 342 107 295 115 q 449 123 434 115 q 458 115 449 115 q 548 219 500 219 l 548 227 q 538 267 548 254 q 619 435 574 406 q 628 363 619 363 l 619 347 l 619 19 l 628 3 l 610 -5 l 431 -5 q 422 -13 422 -5 l 404 -5 l 288 -5 l 243 3 l 243 -5 l 226 3 q -34 -13 188 3 l -43 3 q 64 99 -43 11 l 64 323 q 92 595 64 479 q 64 740 64 681 l 64 868 l -34 956 l -34 972 z "},"F":{"ha":681,"x_min":-28,"x_max":612,"o":"m -28 972 l 75 972 q 344 930 251 972 q 612 972 530 972 l 612 579 q 427 827 600 579 l 281 827 l 281 538 q 385 600 385 579 q 468 538 468 568 l 468 310 q 281 414 361 414 l 281 186 q 364 20 281 111 l 261 0 l -28 0 l -28 20 l 54 124 l 54 393 q 75 786 54 559 q -28 951 70 821 l -28 972 z "},"G":{"ha":744,"x_min":0,"x_max":706,"o":"m 384 975 q 557 920 418 975 q 644 957 607 957 l 644 607 q 372 851 483 851 q 218 350 218 851 q 384 119 279 119 q 457 221 457 119 l 457 423 q 372 515 457 471 l 372 534 l 681 534 q 706 497 706 528 l 644 460 l 644 0 l 631 0 q 557 37 610 0 q 458 0 512 0 l 421 0 q 372 18 393 0 q 322 0 350 0 l 309 0 q 0 497 44 0 q 309 957 67 957 l 384 975 z "},"H":{"ha":779,"x_min":-34,"x_max":768,"o":"m -2 972 l 46 972 q 54 964 54 972 l 71 972 l 359 972 l 271 867 l 271 844 q 255 667 271 734 q 271 555 271 642 l 287 563 l 448 563 l 463 555 l 463 867 l 375 972 l 768 972 q 664 867 768 964 l 664 779 q 640 723 664 741 q 664 627 664 655 l 664 354 q 640 338 664 338 q 688 73 664 73 l 744 25 q 720 -7 732 -7 l 479 -7 q 399 17 451 -7 l 399 33 q 463 98 415 33 l 463 435 l 271 435 l 271 354 q 247 218 247 264 q 279 81 271 157 q 359 1 290 81 l 359 -7 l -34 -7 l -34 9 q 71 121 71 75 l 71 266 q 79 274 71 274 q 71 282 79 282 l 94 418 q 79 515 79 482 l 86 571 q 71 587 71 571 l 71 844 q -2 940 71 873 l -2 972 z "},"I":{"ha":398,"x_min":-27,"x_max":372,"o":"m -27 968 l 372 968 l 269 865 l 269 513 q 253 449 253 456 l 253 417 q 269 353 253 382 q 260 265 269 336 q 269 89 269 145 q 340 1 340 49 l 325 -7 l -27 -7 l -27 1 l 77 105 l 77 377 q 68 385 77 385 l 77 401 l 77 817 q -19 952 77 880 l -27 968 z "},"J":{"ha":618,"x_min":-2,"x_max":616,"o":"m 512 557 l 521 508 q 524 455 524 484 q 245 -3 516 -3 q 222 2 233 -1 q 84 57 176 21 q -2 20 35 20 l -2 370 q 222 136 125 177 l 222 138 l 224 138 q 319 361 319 138 l 319 562 l 336 561 q 320 615 334 590 q 328 703 320 632 q 320 879 320 823 q 248 966 248 919 l 264 975 l 616 975 l 616 966 l 512 863 l 512 591 q 520 583 512 583 l 512 567 l 512 557 z "},"K":{"ha":776,"x_min":-56,"x_max":762,"o":"m 235 231 q 240 92 240 139 q 312 4 312 52 l 296 -4 l -56 -4 l -56 4 l 48 108 l 48 380 q 40 388 48 388 l 48 404 l 48 819 q -47 955 48 883 l -56 971 l 344 971 l 240 867 l 240 515 q 224 452 224 458 l 224 422 q 340 608 246 451 q 373 668 353 633 q 432 764 397 709 q 496 891 496 865 q 439 951 486 891 l 439 966 l 533 966 q 617 974 566 966 q 682 966 649 966 l 762 966 l 762 951 q 626 804 654 882 q 449 532 524 650 q 619 143 559 323 q 659 72 635 72 q 748 -4 748 3 q 732 -18 748 -18 q 644 4 644 -11 q 579 -11 614 -11 l 467 -11 q 435 -18 448 -11 q 402 -11 420 -11 l 354 -11 l 354 4 q 426 72 370 4 q 399 187 426 104 l 374 264 q 330 344 352 304 q 324 355 327 349 q 235 231 280 292 z "},"L":{"ha":694,"x_min":-14,"x_max":634,"o":"m 14 972 l 436 972 q 319 869 436 962 l 319 773 q 301 765 301 773 q 319 415 319 482 l 319 137 q 337 121 322 121 l 436 121 q 607 503 458 130 l 625 503 l 625 161 q 589 81 614 81 l 634 9 q 607 2 616 2 q 373 -6 443 2 q 67 2 240 2 l -14 2 l -14 9 l 103 113 l 103 161 q 113 256 103 215 q 103 352 103 298 l 103 359 q 94 368 103 368 q 113 471 103 380 q 103 813 103 652 l 103 837 q 94 844 103 844 l 103 861 q 22 932 102 875 l -5 964 l 14 972 z "},"M":{"ha":907,"x_min":-47,"x_max":911,"o":"m 409 304 q 384 330 409 304 q 274 486 360 355 q 237 542 274 513 l 237 73 q 324 -1 324 36 l -35 -1 q 52 73 -35 36 l 52 878 l -47 935 l -47 972 l 115 972 q 289 785 216 972 l 439 555 l 439 555 q 460 595 460 576 q 799 1136 650 885 l 824 1117 l 811 987 l 811 577 l 824 484 q 811 427 811 484 l 811 278 q 911 39 811 39 l 911 1 l 547 1 l 547 39 q 633 95 621 95 l 633 540 l 475 297 q 409 304 457 252 z "},"N":{"ha":713,"x_min":-47,"x_max":725,"o":"m -47 972 l 115 972 q 289 785 216 972 l 448 542 l 448 878 q 361 935 435 878 l 361 972 l 725 972 l 725 935 q 625 804 625 935 l 625 654 q 638 598 625 598 l 625 505 l 625 95 l 638 -35 l 613 -54 q 274 486 465 197 q 237 542 274 513 l 237 73 q 324 -1 324 36 l -35 -1 q 52 73 -35 36 l 52 878 l -47 935 l -47 972 z "},"O":{"ha":810,"x_min":0,"x_max":749,"o":"m 283 972 l 405 972 q 749 567 696 972 l 749 466 q 608 142 749 218 q 385 0 608 47 q 0 506 45 0 q 243 931 0 780 q 283 972 250 972 m 243 668 l 243 364 q 405 142 243 142 q 526 446 506 142 l 526 547 q 364 850 526 850 q 243 668 243 800 m 364 608 l 385 608 q 486 506 412 608 l 486 486 q 405 345 405 385 l 385 345 q 263 506 353 345 l 364 608 z "},"P":{"ha":725,"x_min":-38,"x_max":668,"o":"m 263 393 q 256 401 258 399 l 263 362 l 263 109 q 359 21 336 21 l 359 5 l 268 5 q 252 29 252 5 q -14 -3 211 5 q -38 5 -30 5 l -38 13 l 65 116 l 65 289 l 73 336 q 65 376 65 350 l 65 838 q -38 964 65 879 l -38 972 l 57 972 q 231 964 127 972 q 311 972 273 972 q 668 703 668 972 q 612 562 668 648 q 263 393 532 413 m 271 528 l 279 528 q 469 687 469 528 q 311 845 469 845 l 279 845 l 263 854 l 263 555 l 256 537 l 271 528 z "},"Q":{"ha":810,"x_min":0,"x_max":840,"o":"m 364 608 l 385 608 q 486 506 412 608 l 486 486 q 405 345 405 385 l 385 345 q 263 506 353 345 l 364 608 m 243 668 l 243 364 q 405 142 243 142 q 526 446 506 142 l 526 547 q 364 850 526 850 q 243 668 243 800 m 439 13 q 385 0 414 6 q 0 506 45 0 q 243 931 0 780 q 283 972 250 972 l 405 972 q 749 567 696 972 l 749 466 q 608 142 749 218 q 582 83 608 109 q 705 -92 680 -56 q 840 -179 806 -132 l 829 -187 l 477 -187 l 472 -179 l 502 -75 l 439 13 z "},"R":{"ha":725,"x_min":-38,"x_max":723,"o":"m -38 972 l 57 972 q 231 964 140 972 q 311 972 273 972 q 668 703 668 972 q 612 576 668 648 q 454 457 534 457 l 454 449 q 549 235 549 288 q 707 53 612 126 q 723 37 707 37 l 723 29 q 628 -3 723 7 q 486 5 553 5 q 256 401 282 375 l 263 362 l 263 109 q 359 21 336 21 l 359 5 l 200 5 q 184 29 184 5 q -14 -3 143 5 q -38 5 -30 5 l -38 13 l 65 116 l 65 560 l 73 608 q 65 648 65 621 l 65 838 q -38 964 65 879 l -38 972 m 256 846 l 263 830 l 263 560 l 279 568 l 311 568 q 469 711 469 568 q 279 854 469 854 l 271 854 l 256 846 z "},"S":{"ha":656,"x_min":-9,"x_max":590,"o":"m 136 946 q 343 977 217 979 q 366 972 355 975 q 504 917 412 953 q 590 954 553 954 l 590 604 q 366 838 463 797 l 366 836 l 363 836 q 221 740 220 849 q 307 541 200 582 q 526 420 456 496 l 498 353 l 546 394 q 584 267 584 338 q 328 5 589 3 q 87 54 186 -16 q 1 18 38 18 l 1 368 q 258 127 152 140 q 275 127 267 127 q 378 251 393 130 q 260 416 392 356 q -9 730 1 493 q 12 833 -7 789 q 71 890 54 857 q 134 916 93 916 l 136 946 z "},"T":{"ha":750,"x_min":0,"x_max":684,"o":"m 9 972 q 85 964 54 972 q 427 972 300 972 l 616 972 l 659 924 q 675 940 661 940 l 684 924 l 684 581 l 667 581 q 624 709 624 675 l 624 741 q 538 852 581 741 l 445 852 l 445 446 q 436 334 445 402 q 445 302 445 321 q 436 151 436 195 q 556 16 436 81 l 556 0 l 128 0 l 128 8 q 231 119 231 79 q 239 151 231 138 q 231 302 231 239 l 231 311 q 256 629 231 444 q 231 852 231 772 l 145 852 q 9 581 115 822 l 0 581 l 0 916 l 9 972 z "},"U":{"ha":769,"x_min":-35,"x_max":792,"o":"m 487 488 l 487 867 l 399 972 l 792 972 q 688 867 792 964 l 688 779 q 664 723 688 741 q 688 627 688 655 l 680 448 q 557 142 675 215 q 362 0 557 47 q 29 450 73 0 q 38 590 60 516 l 38 847 q -35 943 38 876 l -35 975 l 14 975 q 22 967 22 975 l 38 975 l 327 975 l 238 871 l 238 847 q 222 671 238 738 q 237 488 235 650 l 239 488 l 239 364 q 380 142 239 142 q 486 446 468 142 l 486 488 l 487 488 z "},"V":{"ha":776,"x_min":-28,"x_max":776,"o":"m 507 685 q 529 775 507 685 q 551 892 551 864 q 486 956 541 892 l 486 972 l 567 972 q 631 980 600 972 q 696 972 663 972 l 776 972 l 776 956 q 640 731 668 882 l 479 95 l 479 87 q 543 14 543 35 q 471 -9 490 -9 l 285 -9 q 173 465 213 316 l 181 481 l 181 498 q 173 505 181 505 l 181 522 l 181 554 q 125 659 181 586 q 60 884 84 884 q -28 964 -28 957 q -13 980 -28 980 q 76 956 76 972 q 140 972 105 972 l 253 972 q 285 980 271 972 q 317 972 300 972 l 366 972 l 366 956 q 294 884 350 956 q 309 803 294 850 q 294 787 294 803 q 334 675 317 787 l 366 538 l 406 321 l 414 321 q 507 685 463 507 z "},"W":{"ha":1175,"x_min":-20,"x_max":1128,"o":"m -20 968 l 338 968 q 279 894 329 945 q 329 727 329 754 l 313 735 l 304 735 q 395 544 348 626 q 412 469 395 524 l 420 469 l 545 902 q 496 960 538 902 l 496 968 l 687 968 l 687 935 q 670 894 687 894 q 703 777 703 813 l 687 777 q 804 469 735 730 l 812 469 q 928 793 812 531 q 937 810 937 793 l 920 810 q 937 894 920 827 q 886 960 937 903 l 886 968 l 1128 968 l 1128 960 q 978 610 1053 857 q 953 577 966 610 q 962 553 962 562 q 911 452 962 528 q 770 -22 911 373 l 762 -22 q 670 319 695 182 q 578 553 642 319 l 570 553 q 471 302 515 353 l 463 286 l 471 245 q 395 95 456 192 l 404 53 q 371 -22 387 -22 l 155 644 q 163 669 163 660 l 138 686 l 163 727 q 130 793 130 769 l 121 793 l 104 785 q -20 951 104 873 l -20 968 z "},"X":{"ha":776,"x_min":-56,"x_max":762,"o":"m 330 344 q 237 171 250 210 q 210 58 210 84 q 268 -2 220 58 l 268 -17 l 153 -17 q 90 -24 120 -17 q 24 -17 58 -17 l -56 -17 l -56 -2 q 81 145 52 67 l 264 472 q 129 771 191 618 q 79 819 129 801 q 39 890 63 890 q -50 965 -50 958 q -34 980 -50 980 q 55 958 55 972 q 119 972 84 972 l 252 972 l 284 980 q 317 972 299 972 l 365 972 l 365 958 q 293 890 349 958 q 311 830 293 858 q 296 816 296 830 q 313 774 319 816 l 338 728 q 373 668 356 697 q 432 764 397 709 q 496 891 496 865 q 439 951 486 891 l 439 966 l 533 966 q 617 974 566 966 q 682 966 649 966 l 762 966 l 762 951 q 626 804 654 882 q 449 532 524 650 q 619 143 559 323 q 659 72 635 72 q 748 -4 748 3 q 732 -18 748 -18 q 644 4 644 -11 q 579 -11 614 -11 l 467 -11 q 435 -18 448 -11 q 402 -11 420 -11 l 354 -11 l 354 4 q 426 72 370 4 q 399 187 426 104 l 374 264 q 330 344 352 304 z "},"Y":{"ha":776,"x_min":-28,"x_max":776,"o":"m 409 -4 l 172 -4 l 275 100 l 275 287 q 142 669 210 457 l 150 685 l 150 701 q 142 709 150 709 l 150 725 l 150 758 q 100 808 150 789 q 60 884 84 884 q -28 964 -28 957 q -13 980 -28 980 q 76 956 76 972 q 140 972 105 972 l 253 972 q 285 980 271 972 q 317 972 300 972 l 366 972 l 366 956 q 294 884 350 956 q 309 803 294 850 q 294 787 294 803 q 340 688 317 787 l 366 606 l 386 517 l 394 517 q 486 719 442 574 q 530 892 530 864 q 473 956 520 892 l 473 972 l 567 972 q 631 980 600 972 q 696 972 663 972 l 776 972 l 776 956 q 640 799 668 882 l 462 375 l 467 148 q 564 12 467 84 l 571 -4 l 432 -4 l 410 47 l 409 -4 z "},"Z":{"ha":681,"x_min":-22,"x_max":641,"o":"m 498 972 l 641 972 l 641 951 q 545 808 566 852 l 262 138 q 433 132 326 148 q 618 380 606 380 l 618 -13 q 350 28 536 -13 q 81 -13 257 -13 l -22 -13 l -22 7 q 73 151 52 106 l 165 383 q 235 446 195 422 q 199 467 229 461 l 331 808 l 331 827 l 186 827 q 0 579 13 579 l 0 972 q 305 952 151 972 q 473 971 406 968 l 473 909 l 498 972 z "},"[":{"ha":414,"x_min":-20,"x_max":372,"o":"m 357 918 q 344 918 351 918 q 222 736 222 867 l 222 296 q 369 75 222 85 l 372 -66 q 364 -68 368 -67 q -20 506 25 -68 q 222 999 -20 848 q 263 1040 229 1040 q 355 1044 312 1046 l 357 918 z "},"\\":{"ha":776,"x_min":-50,"x_max":748,"o":"m 374 264 q 129 771 235 509 q 79 819 129 801 q 39 890 63 890 q -50 965 -50 958 q -34 980 -50 980 q 55 958 55 972 q 119 972 84 972 l 252 972 l 284 980 q 317 972 299 972 l 365 972 l 365 958 q 293 890 349 958 q 311 830 293 858 q 296 816 296 830 q 313 774 319 816 l 338 728 q 619 143 532 405 q 659 72 635 72 q 748 -4 748 3 q 732 -18 748 -18 q 644 4 644 -11 q 579 -11 614 -11 l 467 -11 q 435 -18 448 -11 q 402 -11 420 -11 l 354 -11 l 354 4 q 426 72 370 4 q 399 187 426 104 l 374 264 z "},"]":{"ha":414,"x_min":-20,"x_max":372,"o":"m -6 59 q 7 59 1 59 q 129 241 129 110 l 129 681 q -18 903 129 892 l -20 1043 q -13 1045 -17 1044 q 372 471 326 1045 q 129 -22 372 130 q 88 -62 122 -62 q -4 -68 39 -69 l -6 59 z "},"^":{"ha":269,"x_min":-1,"x_max":222,"o":"m 100 551 l 120 551 q 222 450 147 551 l 222 430 q 140 153 140 193 l 120 153 q -1 450 88 153 l 100 551 z "},"_":{"ha":546,"x_min":-7,"x_max":470,"o":"m 282 115 l 300 123 l 336 123 l 354 115 q 452 172 362 138 l 470 172 l 470 163 q 461 -117 470 104 q 470 -141 470 -132 l 345 -5 l 282 -5 l 180 -16 l 163 -24 l 127 -24 l 109 -16 q 10 -72 100 -38 l -7 -72 l -7 -64 q 1 216 -7 -4 q -7 241 -7 232 l 118 104 l 180 104 l 282 115 z "},"`":{"ha":269,"x_min":-1,"x_max":222,"o":"m 100 551 l 120 551 q 222 450 147 551 l 222 430 q 140 153 140 193 l 120 153 q -1 450 88 153 l 100 551 z "},"a":{"ha":617,"x_min":-24,"x_max":611,"o":"m 217 971 l 363 971 q 452 659 420 758 l 446 648 l 446 637 q 452 632 446 632 l 446 621 l 446 600 q 490 532 446 579 q 541 383 522 383 q 611 330 611 335 q 599 319 611 319 q 529 335 529 325 q 478 325 505 325 l 389 325 q 363 319 374 325 q 338 325 352 325 l 300 325 l 300 335 q 357 383 313 335 q 345 436 357 406 q 357 447 357 436 q 325 521 338 447 l 191 521 q 153 378 153 396 q 204 335 161 378 l 204 325 l 140 325 q 90 319 115 325 q 39 325 65 325 l -24 325 l -24 335 q 83 484 61 384 l 211 903 l 211 908 q 160 956 160 943 q 217 971 202 971 m 262 754 q 223 606 223 631 q 249 585 249 606 l 300 611 l 268 754 l 262 754 z "},"b":{"ha":602,"x_min":-16,"x_max":576,"o":"m -16 976 l -10 976 q 229 965 92 976 l 235 976 l 248 970 l 287 970 q 538 836 492 970 l 538 804 q 416 664 538 701 l 416 659 q 512 616 474 650 q 506 600 506 606 l 525 589 q 538 600 527 600 q 576 492 576 543 q 480 369 551 369 q 441 347 460 369 q 203 326 321 326 l 16 326 q 3 336 3 326 q 67 390 3 344 l 67 605 q 87 664 67 628 l 74 766 q 87 799 87 788 q 67 842 67 825 l 67 911 l -16 970 l -16 976 m 235 901 l 235 696 l 293 696 q 377 783 363 696 l 377 825 q 235 901 377 901 m 235 627 l 235 514 q 222 503 235 503 q 229 487 222 497 q 222 428 222 450 q 241 401 231 428 q 409 498 409 401 l 409 519 q 235 627 409 627 z "},"c":{"ha":551,"x_min":-12,"x_max":498,"o":"m 214 974 q 429 941 350 988 q 498 966 469 966 l 498 732 q 292 895 378 884 l 292 892 q 279 892 286 892 q 182 771 182 859 l 182 568 q 312 420 182 420 l 314 420 l 314 419 q 493 575 391 446 l 493 342 q 424 366 464 342 q 314 330 351 342 q 296 326 304 328 q -12 663 24 326 q 182 947 -12 846 q 214 974 187 974 z "},"d":{"ha":598,"x_min":-43,"x_max":552,"o":"m 52 974 l 170 974 q 493 837 408 974 q 545 715 493 812 q 552 652 552 661 q 435 431 528 431 q 368 363 377 363 q 140 326 249 326 q -28 331 63 331 l -43 331 l -43 336 l 38 399 l 38 441 l 45 505 l 60 500 l 67 500 l 67 505 q 38 578 38 562 l 38 605 q 52 816 38 745 q -14 942 38 942 l -14 953 q 52 974 35 974 m 199 889 l 207 879 l 207 415 l 214 415 q 376 605 343 415 l 376 668 q 383 673 376 673 l 376 684 l 376 705 q 243 884 350 884 l 199 889 z "},"e":{"ha":553,"x_min":-33,"x_max":504,"o":"m -25 974 l 96 974 q 132 963 132 972 q 189 968 172 968 q 296 958 235 968 q 354 974 301 974 l 497 974 q 504 963 497 963 l 497 952 l 497 755 l 504 718 l 490 712 q 361 894 378 890 l 233 894 l 233 696 l 247 701 l 275 701 l 290 696 q 368 734 296 711 l 382 734 l 382 728 q 376 541 382 688 q 382 526 382 531 l 282 616 l 233 616 l 233 403 q 275 397 237 403 q 361 408 349 403 q 368 403 361 403 q 440 472 402 472 l 440 477 q 433 504 440 495 q 497 616 461 596 q 504 568 497 568 l 497 557 l 497 338 l 504 328 l 490 323 l 347 323 q 340 317 340 323 l 326 323 l 233 323 l 197 328 l 197 323 l 182 328 q -25 317 152 328 l -33 328 q 54 392 -33 333 l 54 541 q 75 723 54 645 q 54 819 54 780 l 54 904 l -25 963 l -25 974 z "},"f":{"ha":553,"x_min":-19,"x_max":494,"o":"m -19 974 l 64 974 q 279 946 205 974 q 494 974 428 974 l 494 711 q 345 877 484 711 l 229 877 l 229 684 q 312 726 312 711 q 378 684 378 705 l 378 532 q 229 602 293 602 l 229 450 q 296 340 229 400 l 213 326 l -19 326 l -19 340 l 47 408 l 47 588 q 64 850 47 699 q -19 960 60 873 l -19 974 z "},"g":{"ha":602,"x_min":4,"x_max":568,"o":"m 311 976 q 450 939 338 976 q 519 964 489 964 l 519 730 q 301 893 390 893 q 178 559 178 893 q 311 405 227 405 q 370 473 370 405 l 370 608 q 301 669 370 640 l 301 682 l 549 682 q 568 657 568 677 l 519 633 l 519 326 l 509 326 q 450 351 492 326 q 370 326 413 326 l 340 326 q 301 338 318 326 q 261 326 283 326 l 252 326 q 4 657 39 326 q 252 964 58 964 l 311 976 z "},"h":{"ha":618,"x_min":-29,"x_max":612,"o":"m -4 974 l 35 974 q 41 968 41 974 l 54 974 l 285 974 l 214 904 l 214 888 q 201 770 214 816 q 214 696 214 753 l 227 701 l 355 701 l 368 696 l 368 904 l 298 974 l 612 974 q 529 904 612 968 l 529 845 q 509 808 529 820 q 529 744 529 762 l 529 562 q 509 551 529 551 q 548 375 529 375 l 593 342 q 574 321 583 321 l 381 321 q 317 337 358 321 l 317 348 q 368 391 330 348 l 368 615 l 214 615 l 214 562 q 195 471 195 502 q 221 380 214 430 q 285 327 229 380 l 285 321 l -29 321 l -29 332 q 54 407 54 376 l 54 503 q 60 509 54 509 q 54 514 60 514 l 73 605 q 60 669 60 647 l 66 706 q 54 717 54 706 l 54 888 q -4 952 54 907 l -4 974 z "},"i":{"ha":318,"x_min":-22,"x_max":298,"o":"m -22 971 l 298 971 l 215 902 l 215 667 q 202 625 202 629 l 202 604 q 215 561 202 581 q 208 503 215 549 q 215 385 215 422 q 273 327 273 359 l 260 321 l -22 321 l -22 327 l 61 396 l 61 577 q 55 583 61 583 l 61 593 l 61 870 q -16 961 61 912 l -22 971 z "},"j":{"ha":495,"x_min":-1,"x_max":493,"o":"m 410 697 l 417 665 q 419 629 419 648 q 196 323 413 323 q 178 327 186 326 q 67 363 140 340 q -1 339 28 339 l -1 572 q 178 416 100 444 l 178 418 l 180 418 q 255 566 255 418 l 255 700 l 269 700 q 256 736 267 719 q 262 794 256 747 q 256 911 256 874 q 199 970 199 939 l 212 975 l 493 975 l 493 970 l 410 901 l 410 720 q 416 714 410 714 l 410 704 l 410 697 z "},"k":{"ha":612,"x_min":-49,"x_max":606,"o":"m 183 479 q 188 387 188 418 q 245 328 245 360 l 233 323 l -49 323 l -49 328 l 35 397 l 35 579 q 28 585 35 585 l 35 595 l 35 872 q -42 962 35 914 l -49 973 l 271 973 l 188 904 l 188 669 q 176 627 176 631 l 176 608 q 268 731 193 627 q 294 771 278 747 q 341 835 314 798 q 393 920 393 903 q 347 960 385 920 l 347 970 l 422 970 q 490 975 449 970 q 542 970 515 970 l 606 970 l 606 960 q 496 862 519 914 q 355 681 415 759 q 491 421 444 541 q 523 374 504 374 q 594 323 594 328 q 582 313 594 313 q 511 328 511 319 q 459 319 488 319 l 369 319 q 344 313 355 319 q 317 319 332 319 l 279 319 l 279 328 q 336 374 292 328 q 315 450 336 395 l 295 502 q 260 555 277 528 q 255 563 258 559 q 183 479 220 520 z "},"l":{"ha":564,"x_min":-6,"x_max":512,"o":"m 16 974 l 353 974 q 260 905 353 967 l 260 841 q 245 836 245 841 q 260 603 260 648 l 260 417 q 275 406 262 406 l 353 406 q 490 661 372 412 l 505 661 l 505 433 q 476 380 496 380 l 512 332 q 490 327 498 327 q 303 321 359 327 q 58 327 197 327 l -6 327 l -6 332 l 87 401 l 87 433 q 94 496 87 469 q 87 560 87 524 l 87 566 q 80 571 87 571 q 94 640 87 578 q 87 867 87 760 l 87 884 q 80 889 87 889 l 87 899 q 22 947 87 909 l 1 968 l 16 974 z "},"m":{"ha":715,"x_min":-43,"x_max":724,"o":"m 322 528 q 303 546 322 528 q 214 650 283 563 q 184 687 214 667 l 184 374 q 254 325 254 350 l -33 325 q 37 374 -33 350 l 37 911 l -43 949 l -43 974 l 87 974 q 226 849 168 974 l 346 696 l 346 696 q 363 723 363 709 q 634 1083 515 916 l 654 1070 l 644 983 l 644 711 l 654 648 q 644 610 644 648 l 644 511 q 724 351 644 351 l 724 327 l 432 327 l 432 351 q 502 389 492 389 l 502 686 l 375 524 q 322 528 361 494 z "},"n":{"ha":559,"x_min":-44,"x_max":574,"o":"m -44 974 l 85 974 q 225 849 167 974 l 352 687 l 352 911 q 282 949 342 911 l 282 974 l 574 974 l 574 949 q 494 861 494 949 l 494 762 q 505 724 494 724 l 494 662 l 494 389 l 505 302 l 484 290 q 214 650 366 457 q 184 687 214 668 l 184 374 q 253 325 253 349 l -34 325 q 36 374 -34 349 l 36 911 l -44 949 l -44 974 z "},"o":{"ha":661,"x_min":6,"x_max":606,"o":"m 233 974 l 330 974 q 606 704 563 974 l 606 636 q 492 420 606 471 q 314 326 492 357 q 6 663 43 326 q 201 947 6 846 q 233 974 205 974 m 201 771 l 201 569 q 330 420 201 420 q 427 623 411 420 l 427 690 q 298 892 427 892 q 201 771 201 859 m 298 730 l 314 730 q 395 663 336 730 l 395 650 q 330 555 330 582 l 314 555 q 216 663 288 555 l 298 730 z "},"p":{"ha":584,"x_min":-28,"x_max":536,"o":"m 212 587 q 206 593 209 591 l 212 567 l 212 398 q 289 340 271 340 l 289 330 l 216 330 q 203 345 203 330 q -9 324 171 330 q -28 330 -22 330 l -28 334 l 54 403 l 54 518 l 60 550 q 54 576 54 559 l 54 884 q -28 968 54 911 l -28 974 l 47 974 q 187 968 103 974 q 250 974 220 974 q 536 795 536 974 q 492 701 536 758 q 212 587 427 601 m 219 678 l 225 678 q 377 784 377 678 q 250 889 377 889 l 225 889 l 212 895 l 212 696 l 206 684 l 219 678 z "},"q":{"ha":642,"x_min":-3,"x_max":669,"o":"m 288 731 l 304 731 q 386 663 326 731 l 386 650 q 321 555 321 582 l 304 555 q 208 663 279 555 l 288 731 m 191 771 l 191 568 q 321 420 191 420 q 418 623 402 420 l 418 690 q 288 892 418 892 q 191 771 191 859 m 348 334 q 304 326 328 330 q -3 663 33 326 q 191 947 -3 846 q 224 974 197 974 l 321 974 q 597 704 554 974 l 597 636 q 484 420 597 471 q 463 381 484 399 q 562 264 541 289 q 669 206 642 238 l 661 201 l 379 201 l 375 206 l 399 275 l 348 334 z "},"r":{"ha":573,"x_min":-34,"x_max":575,"o":"m -34 974 l 42 974 q 182 969 109 974 q 245 974 215 974 q 530 794 530 974 q 486 710 530 758 q 359 631 424 631 l 359 625 q 435 482 435 518 q 562 361 486 410 q 575 351 562 351 l 575 345 q 499 324 575 331 q 385 329 439 329 q 201 593 222 576 l 207 567 l 207 398 q 283 340 266 340 l 283 329 l 156 329 q 144 345 144 329 q -15 324 111 329 q -34 329 -27 329 l -34 334 l 48 404 l 48 699 l 55 731 q 48 758 48 740 l 48 884 q -34 969 48 912 l -34 974 m 201 890 l 207 879 l 207 699 l 220 705 l 245 705 q 372 800 372 705 q 220 895 372 895 l 214 895 l 201 890 z "},"s":{"ha":536,"x_min":-1,"x_max":477,"o":"m 114 956 q 280 977 179 978 q 298 974 290 975 q 409 937 336 961 q 477 962 448 962 l 477 728 q 298 884 376 857 l 298 883 l 296 883 q 182 819 182 892 q 251 686 165 713 q 426 606 371 656 l 404 561 l 442 589 q 473 503 473 551 q 269 330 477 328 q 76 362 155 315 q 7 338 36 338 l 7 571 q 212 411 127 419 q 225 410 219 410 q 308 493 320 412 q 214 603 319 563 q -1 812 7 654 q 16 882 -1 852 q 62 920 49 897 q 113 936 80 936 l 114 956 z "},"t":{"ha":613,"x_min":7,"x_max":554,"o":"m 14 974 q 75 968 50 974 q 349 974 247 974 l 499 974 l 533 942 q 547 952 536 952 l 554 942 l 554 713 l 540 713 q 506 798 506 776 l 506 820 q 437 894 472 820 l 362 894 l 362 623 q 355 549 362 594 q 362 528 362 540 q 355 427 355 456 q 451 336 355 380 l 451 326 l 109 326 l 109 331 q 191 406 191 378 q 198 427 191 417 q 191 528 191 485 l 191 533 q 212 745 191 621 q 191 894 191 841 l 123 894 q 14 713 98 873 l 7 713 l 7 937 l 14 974 z "},"u":{"ha":604,"x_min":-33,"x_max":628,"o":"m 384 651 l 384 904 l 313 974 l 628 974 q 545 904 628 968 l 545 845 q 526 808 545 820 q 545 743 545 762 l 538 624 q 439 420 534 469 q 284 326 439 357 q 18 625 52 326 q 24 719 43 670 l 24 890 q -33 955 24 910 l -33 976 l 5 976 q 12 970 12 976 l 24 976 l 256 976 l 184 906 l 184 890 q 172 773 184 818 q 184 651 182 759 l 185 651 l 185 568 q 298 420 185 420 q 382 623 369 420 l 382 651 l 384 651 z "},"v":{"ha":615,"x_min":-26,"x_max":618,"o":"m 402 783 q 420 842 402 783 q 437 920 437 902 q 386 963 429 920 l 386 974 l 451 974 q 502 979 477 974 q 553 974 527 974 l 618 974 l 618 963 q 509 813 532 913 l 380 389 l 380 384 q 431 336 431 349 q 374 319 389 319 l 225 319 q 135 636 168 536 l 142 646 l 142 658 q 135 663 142 663 l 142 673 l 142 695 q 97 764 142 717 q 45 915 64 915 q -26 968 -26 964 q -13 979 -26 979 q 58 963 58 974 q 109 974 81 974 l 199 974 q 225 979 214 974 q 251 974 237 974 l 290 974 l 290 963 q 232 915 277 963 q 245 861 232 892 q 232 850 232 861 q 264 776 251 850 l 290 684 l 322 539 l 328 539 q 402 783 367 663 z "},"w":{"ha":945,"x_min":-14,"x_max":905,"o":"m -14 971 l 273 971 q 226 922 266 956 q 266 810 266 829 l 253 816 l 246 816 q 319 688 281 743 q 332 639 319 675 l 339 639 l 439 927 q 399 966 433 927 l 399 971 l 552 971 l 552 949 q 539 922 552 922 q 566 844 566 867 l 552 844 q 646 639 591 812 l 652 639 q 745 855 652 680 q 752 866 752 855 l 739 866 q 752 922 739 877 q 712 966 752 928 l 712 971 l 905 971 l 905 966 q 785 733 845 897 q 765 711 775 733 q 772 694 772 700 q 732 627 772 677 q 618 311 732 574 l 612 311 q 539 538 559 447 q 466 694 517 538 l 459 694 q 379 528 415 561 l 372 517 l 379 489 q 319 389 368 454 l 326 361 q 299 311 313 311 l 126 755 q 133 772 133 766 l 113 783 l 133 810 q 106 855 106 838 l 100 855 l 86 849 q -14 960 86 908 l -14 971 z "},"x":{"ha":612,"x_min":-49,"x_max":606,"o":"m 268 731 q 341 834 290 766 q 393 920 393 903 q 347 960 385 920 l 347 970 l 422 970 q 490 975 449 970 q 542 970 515 970 l 606 970 l 606 960 q 496 862 519 914 q 186 439 208 497 q 164 365 164 382 q 210 324 172 365 l 210 315 l 119 315 q 67 309 92 315 q 16 315 42 315 l -49 315 l -49 324 q 60 422 37 370 l 268 731 m 295 502 q 99 840 184 665 q 59 871 99 860 q 27 919 46 919 q -44 969 -44 964 q -31 979 -44 979 q 40 964 40 974 q 92 974 63 974 l 197 974 l 223 979 q 249 974 235 974 l 288 974 l 288 964 q 230 919 275 964 q 245 879 230 898 q 233 869 233 879 q 246 842 252 869 l 266 811 q 491 421 422 595 q 523 374 504 374 q 594 323 594 328 q 582 313 594 313 q 511 328 511 319 q 459 319 488 319 l 369 319 q 344 313 355 319 q 317 319 332 319 l 279 319 l 279 328 q 336 374 292 328 q 315 450 336 395 l 295 502 z "},"y":{"ha":615,"x_min":-26,"x_max":618,"o":"m 324 323 l 134 323 l 218 392 l 218 517 q 111 772 165 631 l 117 783 l 117 793 q 111 798 117 798 l 117 809 l 117 831 q 77 864 117 852 q 45 915 64 915 q -26 968 -26 964 q -13 979 -26 979 q 58 963 58 974 q 109 974 81 974 l 199 974 q 225 979 214 974 q 251 974 237 974 l 290 974 l 290 963 q 232 915 277 963 q 245 861 232 892 q 232 850 232 861 q 269 785 251 850 l 290 730 l 306 671 l 313 671 q 386 805 351 709 q 421 920 421 902 q 375 963 413 920 l 375 974 l 451 974 q 502 979 477 974 q 554 974 527 974 l 618 974 l 618 963 q 509 859 532 914 l 367 576 l 371 425 q 448 334 371 382 l 454 323 l 343 323 l 326 357 l 324 323 z "},"z":{"ha":548,"x_min":-16,"x_max":515,"o":"m 401 973 l 515 974 l 515 960 q 438 865 455 894 l 212 418 q 348 414 262 425 q 496 579 486 579 l 496 317 q 281 345 431 317 q 66 317 208 317 l -16 317 l -16 331 q 60 426 43 397 l 134 581 q 189 623 158 608 q 161 637 185 633 l 267 865 l 267 878 l 151 878 q 2 712 12 712 l 2 974 q 246 960 122 974 q 380 973 326 971 l 380 932 l 401 973 z "},"{":{"ha":414,"x_min":-20,"x_max":372,"o":"m 357 918 q 344 918 351 918 q 222 736 222 867 l 222 296 q 369 75 222 85 l 372 -66 q 364 -68 368 -67 q -20 506 25 -68 q 222 999 -20 848 q 263 1040 229 1040 q 355 1044 312 1046 l 357 918 z "},"|":{"ha":398,"x_min":-27,"x_max":372,"o":"m -27 968 l 372 968 l 269 865 l 269 513 q 253 449 253 456 l 253 417 q 269 353 253 382 q 260 265 269 336 q 269 89 269 145 q 340 1 340 49 l 325 -7 l -27 -7 l -27 1 l 77 105 l 77 377 q 68 385 77 385 l 77 401 l 77 817 q -19 952 77 880 l -27 968 z "},"}":{"ha":414,"x_min":-20,"x_max":372,"o":"m -6 59 q 7 59 1 59 q 129 241 129 110 l 129 681 q -18 903 129 892 l -20 1043 q -13 1045 -17 1044 q 372 471 326 1045 q 129 -22 372 130 q 88 -62 122 -62 q -4 -68 39 -69 l -6 59 z "},"~":{"ha":398,"x_min":-27,"x_max":372,"o":"m -27 968 l 372 968 l 269 865 l 269 513 q 253 449 253 456 l 253 417 q 269 353 253 382 q 260 265 269 336 q 269 89 269 145 q 340 1 340 49 l 325 -7 l -27 -7 l -27 1 l 77 105 l 77 377 q 68 385 77 385 l 77 401 l 77 817 q -19 952 77 880 l -27 968 z "}}}
